<svg xmlns="http://www.w3.org/2000/svg" xmlns:xlink="http://www.w3.org/1999/xlink" width="2560" zoomAndPan="magnify" viewBox="0 0 1920 1079.999946" height="1440" preserveAspectRatio="xMidYMid meet" version="1.0"><rect x="-192" width="2304" fill="#ffffff" y="-107.999995" height="1295.999935" fill-opacity="1"/><rect x="-192" width="2304" fill="#5e17eb" y="-107.999995" height="1295.999935" fill-opacity="1"/><path stroke-linecap="round" transform="matrix(1.943744, 0, 0, 1.94625, -88.90846, -476.96148)" fill="none" stroke-linejoin="round" d="M 179.802734 606.695903 L 179.802734 487.299617 L 331.700307 399.398196 " stroke="#ffffff" stroke-width="4" stroke-opacity="1" stroke-miterlimit="10"/><path stroke-linecap="round" transform="matrix(1.943744, 0, 0, 1.94625, -88.90846, -476.96148)" fill="none" stroke-linejoin="round" d="M 199.903278 619.099565 L 199.903278 499.697258 L 351.696349 411.799851 " stroke="#ffffff" stroke-width="4" stroke-opacity="1" stroke-miterlimit="10"/><path stroke-linecap="round" transform="matrix(1.943744, 0, 0, 1.94625, -88.90846, -476.96148)" fill="none" stroke-linejoin="round" d="M 218.898513 628.695343 L 218.898513 509.301064 L 370.802115 421.397636 " stroke="#ffffff" stroke-width="4" stroke-opacity="1" stroke-miterlimit="10"/><path stroke-linecap="round" transform="matrix(1.943744, 0, 0, 1.94625, -88.90846, -476.96148)" fill="none" stroke-linejoin="round" d="M 238.997048 639.196307 L 238.997048 519.800021 L 390.902659 431.8986 " stroke="#ffffff" stroke-width="4" stroke-opacity="1" stroke-miterlimit="10"/><path stroke-linecap="round" transform="matrix(1.943744, 0, 0, 1.94625, -88.90846, -476.96148)" fill="none" stroke-linejoin="round" d="M 410.000387 444.300255 L 410.000387 562.80139 L 258.096785 651.599969 L 258.096785 532.195655 L 410.000387 444.300255 " stroke="#ffffff" stroke-width="4" stroke-opacity="1" stroke-miterlimit="10"/><path fill="#ffffff" d="M 888.40625 548.511719 L 975.488281 435.050781 C 975.878906 434.65625 976.257812 434.46875 976.851562 434.46875 L 1009.503906 435.050781 C 1010.273438 435.050781 1011.058594 435.832031 1011.058594 436.605469 C 1011.058594 436.996094 1010.871094 437.183594 1010.667969 437.578125 L 938.945312 529.253906 C 938.554688 529.632812 938.554688 530.226562 938.742188 530.808594 L 1001.914062 694.875 C 1002.304688 695.65625 1001.914062 696.628906 1000.941406 696.820312 C 1000.75 696.820312 1000.5625 696.820312 1000.371094 696.820312 L 972.960938 696.820312 C 972.382812 696.820312 971.785156 696.429688 971.410156 695.847656 L 918.925781 559.421875 C 918.53125 558.636719 917.761719 558.246094 916.980469 558.445312 C 916.789062 558.636719 916.398438 558.824219 916.195312 559.027344 L 885.691406 598.535156 C 885.488281 598.722656 885.285156 599.117188 885.285156 599.507812 L 885.285156 695.265625 C 885.285156 696.035156 884.515625 696.820312 883.746094 696.820312 L 857.886719 696.820312 C 857.105469 696.820312 856.335938 696.035156 856.335938 695.265625 L 856.335938 436.210938 C 856.335938 435.441406 857.105469 434.65625 857.886719 434.65625 L 883.746094 434.65625 C 884.515625 434.65625 885.285156 435.441406 885.285156 436.210938 L 885.285156 547.539062 C 885.285156 548.324219 885.878906 549.09375 886.851562 549.09375 C 887.636719 549.09375 888.015625 548.90625 888.40625 548.511719 Z M 888.40625 548.511719 " fill-opacity="1" fill-rule="nonzero"/><path fill="#ffffff" d="M 1069.566406 434.65625 L 1093.277344 434.65625 C 1094.832031 434.65625 1095.992188 435.832031 1095.992188 437.386719 L 1095.992188 665.289062 C 1095.992188 666.84375 1097.15625 668.019531 1098.722656 668.019531 L 1193.964844 668.019531 C 1195.515625 668.019531 1196.691406 669.179688 1196.691406 670.734375 L 1196.097656 694.292969 C 1196.097656 695.847656 1194.9375 696.820312 1193.367188 696.820312 L 1069.566406 696.820312 C 1068 696.820312 1066.839844 695.65625 1066.839844 694.089844 L 1066.839844 437.183594 C 1067.027344 435.832031 1068.203125 434.65625 1069.566406 434.65625 Z M 1069.566406 434.65625 " fill-opacity="1" fill-rule="nonzero"/><path fill="#ffffff" d="M 1382.890625 633.378906 C 1382.890625 667.625 1355.105469 695.453125 1320.898438 695.453125 L 1314.480469 695.453125 C 1280.261719 695.453125 1252.472656 667.625 1252.472656 633.378906 L 1252.472656 497.519531 C 1252.472656 463.269531 1280.261719 435.441406 1314.480469 435.441406 L 1320.898438 435.441406 C 1355.105469 435.441406 1382.890625 463.269531 1382.890625 497.519531 Z M 1354.132812 499.085938 C 1354.132812 479.625 1338.390625 464.054688 1319.140625 464.054688 L 1316.222656 464.054688 C 1296.785156 464.054688 1281.234375 479.8125 1281.234375 499.085938 L 1281.234375 631.621094 C 1281.234375 651.082031 1296.984375 666.652344 1316.222656 666.652344 L 1319.140625 666.652344 C 1338.582031 666.652344 1354.132812 650.894531 1354.132812 631.621094 Z M 1354.132812 499.085938 " fill-opacity="1" fill-rule="nonzero"/><path fill="#ffffff" d="M 1577.078125 693.710938 C 1577.078125 695.65625 1576.105469 696.628906 1574.160156 696.628906 L 1552.773438 696.820312 C 1550.449219 696.820312 1549.289062 695.65625 1549.289062 693.320312 L 1549.289062 504.925781 C 1549.289062 502.980469 1548.503906 501.804688 1546.75 501.03125 L 1470.945312 467.164062 C 1469.378906 466.582031 1468.421875 466.1875 1467.652344 466.582031 L 1467.652344 516.398438 C 1467.449219 575.367188 1467.449219 634.351562 1467.449219 693.507812 C 1467.449219 695.453125 1466.476562 696.429688 1464.53125 696.429688 L 1441.589844 697.007812 C 1439.457031 697.007812 1438.484375 696.035156 1438.484375 693.902344 L 1438.484375 438.550781 C 1438.484375 436.996094 1439.253906 436.023438 1440.820312 435.628906 C 1441.011719 435.628906 1441.011719 435.628906 1441.199219 435.628906 L 1462.394531 435.628906 L 1476.390625 441.28125 L 1543.832031 468.527344 L 1544.613281 468.917969 C 1547.722656 470.082031 1549.476562 468.714844 1549.476562 465.027344 L 1549.476562 437.78125 C 1549.476562 435.628906 1550.449219 434.65625 1552.585938 434.65625 L 1573.96875 434.65625 C 1576.105469 434.65625 1577.078125 435.628906 1577.078125 437.78125 Z M 1577.078125 693.710938 " fill-opacity="1" fill-rule="nonzero"/><path stroke-linecap="butt" transform="matrix(1.943744, 0, 0, 1.94625, -88.90846, -476.96148)" fill-opacity="1" fill="#ffffff" fill-rule="nonzero" stroke-linejoin="round" d="M 886.195579 468.501446 L 900.998679 468.501446 L 900.998679 603.299949 L 886.195579 603.299949 Z M 886.195579 468.501446 " stroke="#ffffff" stroke-width="1" stroke-opacity="1" stroke-miterlimit="10"/></svg>