<svg xmlns="http://www.w3.org/2000/svg" xmlns:xlink="http://www.w3.org/1999/xlink" width="195" zoomAndPan="magnify" viewBox="0 0 146.25 159.000002" height="212" preserveAspectRatio="xMidYMid meet" version="1.0"><path stroke-linecap="round" transform="matrix(0.610747, 0, 0, 0.612088, -107.208838, -243.259709)" fill="none" stroke-linejoin="round" d="M 179.803187 606.699527 L 179.803187 487.301598 L 331.698308 399.398072 " stroke="#ffffff" stroke-width="4" stroke-opacity="1" stroke-miterlimit="10"/><path stroke-linecap="round" transform="matrix(0.610747, 0, 0, 0.612088, -107.208838, -243.259709)" fill="none" stroke-linejoin="round" d="M 199.898958 619.099451 L 199.898958 499.69514 L 351.698141 411.804378 " stroke="#ffffff" stroke-width="4" stroke-opacity="1" stroke-miterlimit="10"/><path stroke-linecap="round" transform="matrix(0.610747, 0, 0, 0.612088, -107.208838, -243.259709)" fill="none" stroke-linejoin="round" d="M 218.901038 628.697745 L 218.901038 509.299816 L 370.802555 421.402672 " stroke="#ffffff" stroke-width="4" stroke-opacity="1" stroke-miterlimit="10"/><path stroke-linecap="round" transform="matrix(0.610747, 0, 0, 0.612088, -107.208838, -243.259709)" fill="none" stroke-linejoin="round" d="M 238.996809 639.195879 L 238.996809 519.804332 L 390.898326 431.900806 " stroke="#ffffff" stroke-width="4" stroke-opacity="1" stroke-miterlimit="10"/><path stroke-linecap="round" transform="matrix(0.610747, 0, 0, 0.612088, -107.208838, -243.259709)" fill="none" stroke-linejoin="round" d="M 410.00274 444.30073 L 410.00274 562.8052 L 258.101223 651.595803 L 258.101223 532.197874 L 410.00274 444.30073 " stroke="#ffffff" stroke-width="4" stroke-opacity="1" stroke-miterlimit="10"/></svg>