<svg xmlns="http://www.w3.org/2000/svg" xmlns:xlink="http://www.w3.org/1999/xlink" width="545"
  zoomAndPan="magnify" viewBox="0 0 408.75 149.999998" height="200"
  preserveAspectRatio="xMidYMid meet" version="1.0">
  <path stroke-linecap="round" transform="matrix(0.562033, 0, 0, 0.5625, -98.918423, -218.954131)"
    fill="none" stroke-linejoin="round"
    d="M 179.802959 606.696281 L 179.802959 487.300438 L 331.699982 399.397654 " stroke="#ffffff"
    stroke-width="4" stroke-opacity="1" stroke-miterlimit="10" />
  <path stroke-linecap="round" transform="matrix(0.562033, 0, 0, 0.5625, -98.918423, -218.954131)"
    fill="none" stroke-linejoin="round"
    d="M 199.902991 619.09906 L 199.902991 499.696273 L 351.695761 411.800432 " stroke="#ffffff"
    stroke-width="4" stroke-opacity="1" stroke-miterlimit="10" />
  <path stroke-linecap="round" transform="matrix(0.562033, 0, 0, 0.5625, -98.918423, -218.954131)"
    fill="none" stroke-linejoin="round"
    d="M 218.897937 628.696283 L 218.897937 509.30044 L 370.801911 421.397655 " stroke="#ffffff"
    stroke-width="4" stroke-opacity="1" stroke-miterlimit="10" />
  <path stroke-linecap="round" transform="matrix(0.562033, 0, 0, 0.5625, -98.918423, -218.954131)"
    fill="none" stroke-linejoin="round"
    d="M 238.997969 639.196283 L 238.997969 519.800441 L 390.901943 431.897656 " stroke="#ffffff"
    stroke-width="4" stroke-opacity="1" stroke-miterlimit="10" />
  <path stroke-linecap="round" transform="matrix(0.562033, 0, 0, 0.5625, -98.918423, -218.954131)"
    fill="none" stroke-linejoin="round"
    d="M 410.001143 444.300435 L 410.001143 562.800444 L 258.097169 651.599062 L 258.097169 532.196275 L 410.001143 444.300435 "
    stroke="#ffffff" stroke-width="4" stroke-opacity="1" stroke-miterlimit="10" />
  <path fill="#ffffff"
    d="M 183.671875 77.425781 L 208.851562 44.632812 C 208.964844 44.519531 209.074219 44.464844 209.246094 44.464844 L 218.6875 44.632812 C 218.910156 44.632812 219.136719 44.859375 219.136719 45.082031 C 219.136719 45.195312 219.082031 45.25 219.023438 45.363281 L 198.285156 71.859375 C 198.171875 71.96875 198.171875 72.140625 198.226562 72.308594 L 216.492188 119.726562 C 216.605469 119.953125 216.492188 120.234375 216.210938 120.289062 C 216.15625 120.289062 216.101562 120.289062 216.046875 120.289062 L 208.121094 120.289062 C 207.953125 120.289062 207.78125 120.175781 207.671875 120.007812 L 192.496094 80.578125 C 192.382812 80.351562 192.160156 80.238281 191.933594 80.296875 C 191.878906 80.351562 191.765625 80.40625 191.707031 80.464844 L 182.886719 91.882812 C 182.828125 91.9375 182.769531 92.050781 182.769531 92.164062 L 182.769531 119.839844 C 182.769531 120.0625 182.546875 120.289062 182.324219 120.289062 L 174.847656 120.289062 C 174.621094 120.289062 174.398438 120.0625 174.398438 119.839844 L 174.398438 44.96875 C 174.398438 44.746094 174.621094 44.519531 174.847656 44.519531 L 182.324219 44.519531 C 182.546875 44.519531 182.769531 44.746094 182.769531 44.96875 L 182.769531 77.144531 C 182.769531 77.371094 182.941406 77.59375 183.222656 77.59375 C 183.449219 77.59375 183.558594 77.539062 183.671875 77.425781 Z M 183.671875 77.425781 "
    fill-opacity="1" fill-rule="nonzero" />
  <path fill="#ffffff"
    d="M 236.054688 44.519531 L 242.910156 44.519531 C 243.359375 44.519531 243.695312 44.859375 243.695312 45.308594 L 243.695312 111.175781 C 243.695312 111.625 244.03125 111.964844 244.484375 111.964844 L 272.023438 111.964844 C 272.472656 111.964844 272.8125 112.300781 272.8125 112.75 L 272.640625 119.558594 C 272.640625 120.007812 272.304688 120.289062 271.851562 120.289062 L 236.054688 120.289062 C 235.601562 120.289062 235.265625 119.953125 235.265625 119.5 L 235.265625 45.25 C 235.320312 44.859375 235.660156 44.519531 236.054688 44.519531 Z M 236.054688 44.519531 "
    fill-opacity="1" fill-rule="nonzero" />
  <path fill="#ffffff"
    d="M 326.652344 101.953125 C 326.652344 111.851562 318.617188 119.894531 308.726562 119.894531 L 306.871094 119.894531 C 296.976562 119.894531 288.941406 111.851562 288.941406 101.953125 L 288.941406 62.6875 C 288.941406 52.789062 296.976562 44.746094 306.871094 44.746094 L 308.726562 44.746094 C 318.617188 44.746094 326.652344 52.789062 326.652344 62.6875 Z M 318.335938 63.140625 C 318.335938 57.515625 313.785156 53.015625 308.21875 53.015625 L 307.375 53.015625 C 301.753906 53.015625 297.257812 57.570312 297.257812 63.140625 L 297.257812 101.445312 C 297.257812 107.070312 301.8125 111.570312 307.375 111.570312 L 308.21875 111.570312 C 313.839844 111.570312 318.335938 107.015625 318.335938 101.445312 Z M 318.335938 63.140625 "
    fill-opacity="1" fill-rule="nonzero" />
  <path fill="#ffffff"
    d="M 382.800781 119.390625 C 382.800781 119.953125 382.519531 120.234375 381.957031 120.234375 L 375.773438 120.289062 C 375.101562 120.289062 374.765625 119.953125 374.765625 119.277344 L 374.765625 64.828125 C 374.765625 64.265625 374.539062 63.925781 374.03125 63.703125 L 352.113281 53.914062 C 351.660156 53.746094 351.382812 53.632812 351.160156 53.746094 L 351.160156 68.144531 C 351.101562 85.1875 351.101562 102.234375 351.101562 119.332031 C 351.101562 119.894531 350.820312 120.175781 350.257812 120.175781 L 343.625 120.34375 C 343.007812 120.34375 342.726562 120.0625 342.726562 119.445312 L 342.726562 45.644531 C 342.726562 45.195312 342.949219 44.914062 343.402344 44.800781 C 343.457031 44.800781 343.457031 44.800781 343.511719 44.800781 L 349.640625 44.800781 L 353.6875 46.433594 L 373.1875 54.308594 L 373.414062 54.421875 C 374.3125 54.757812 374.820312 54.363281 374.820312 53.296875 L 374.820312 45.421875 C 374.820312 44.800781 375.101562 44.519531 375.71875 44.519531 L 381.902344 44.519531 C 382.519531 44.519531 382.800781 44.800781 382.800781 45.421875 Z M 382.800781 119.390625 "
    fill-opacity="1" fill-rule="nonzero" />
  <path stroke-linecap="butt" transform="matrix(0.562033, 0, 0, 0.5625, -98.918423, -218.954131)"
    fill-opacity="1" fill="#ffffff" fill-rule="nonzero" stroke-linejoin="round"
    d="M 886.195357 468.501826 L 900.999322 468.501826 L 900.999322 603.300447 L 886.195357 603.300447 Z M 886.195357 468.501826 "
    stroke="#ffffff" stroke-width="1" stroke-opacity="1" stroke-miterlimit="10" />
</svg>